Griffith_Gothic-Black.ufo
<glyph name="numbersign" format="1">
  <advance width="647"/>
  <unicode hex="0023"/>
  <outline>
    <contour>
      <point x="619" y="442" type="line"/>
      <point x="495" y="442" type="line"/>
      <point x="467" y="278" type="line"/>
      <point x="585" y="278" type="line"/>
      <point x="585" y="156" type="line"/>
      <point x="446" y="156" type="line"/>
      <point x="420" y="0" type="line"/>
      <point x="346" y="0" type="line"/>
      <point x="372" y="156" type="line"/>
      <point x="206" y="156" type="line"/>
      <point x="180" y="0" type="line"/>
      <point x="106" y="0" type="line"/>
      <point x="132" y="156" type="line"/>
      <point x="28" y="156" type="line"/>
      <point x="28" y="278" type="line"/>
      <point x="153" y="278" type="line"/>
      <point x="180" y="442" type="line"/>
      <point x="62" y="442" type="line"/>
      <point x="62" y="564" type="line"/>
      <point x="201" y="564" type="line"/>
      <point x="227" y="720" type="line"/>
      <point x="301" y="720" type="line"/>
      <point x="275" y="564" type="line"/>
      <point x="442" y="564" type="line"/>
      <point x="467" y="720" type="line"/>
      <point x="541" y="720" type="line"/>
      <point x="515" y="564" type="line"/>
      <point x="619" y="564" type="line"/>
    </contour>
    <contour>
      <point x="423" y="446" type="line"/>
      <point x="253" y="446" type="line"/>
      <point x="224" y="274" type="line"/>
      <point x="395" y="274" type="line"/>
    </contour>
  </outline>
</glyph>
<glyph name="parenleft" format="1">
  <advance width="373"/>
  <unicode hex="0028"/>
  <outline>
    <contour>
      <point x="359" y="-95" type="curve"/>
      <point x="227" y="-95" type="line"/>
      <point x="126" y="3"/>
      <point x="40" y="136"/>
      <point x="40" y="320" type="curve" smooth="yes"/>
      <point x="40" y="504"/>
      <point x="126" y="637"/>
      <point x="227" y="735" type="curve"/>
      <point x="359" y="735" type="line"/>
      <point x="248" y="604"/>
      <point x="199" y="473"/>
      <point x="199" y="320" type="curve" smooth="yes"/>
      <point x="199" y="167"/>
      <point x="248" y="36"/>
    </contour>
  </outline>
</glyph>
<glyph name="five" format="1">
  <advance width="570"/>
  <unicode hex="0035"/>
  <outline>
    <contour>
      <point x="539" y="247" type="line" smooth="yes"/>
      <point x="539" y="70"/>
      <point x="419" y="-10"/>
      <point x="250" y="-10" type="curve" smooth="yes"/>
      <point x="157" y="-10"/>
      <point x="99" y="3"/>
      <point x="20" y="39" type="curve"/>
      <point x="61" y="153" type="line"/>
      <point x="133" y="121"/>
      <point x="183" y="110"/>
      <point x="243" y="110" type="curve" smooth="yes"/>
      <point x="329" y="110"/>
      <point x="380" y="158"/>
      <point x="380" y="245" type="curve" smooth="yes"/>
      <point x="380" y="250" type="line" smooth="yes"/>
      <point x="380" y="325"/>
      <point x="344" y="364"/>
      <point x="279" y="364" type="curve" smooth="yes"/>
      <point x="235" y="364"/>
      <point x="203" y="347"/>
      <point x="168" y="315" type="curve"/>
      <point x="58" y="315" type="line"/>
      <point x="90" y="720" type="line"/>
      <point x="500" y="720" type="line"/>
      <point x="500" y="596" type="line"/>
      <point x="189" y="596" type="line"/>
      <point x="173" y="416" type="line"/>
      <point x="180" y="416" type="line"/>
      <point x="222" y="454"/>
      <point x="260" y="475"/>
      <point x="334" y="475" type="curve" smooth="yes"/>
      <point x="457" y="475"/>
      <point x="539" y="401"/>
      <point x="539" y="260" type="curve" smooth="yes"/>
    </contour>
  </outline>
</glyph>
<glyph name="seven" format="1">
  <advance width="545"/>
  <unicode hex="0037"/>
  <outline>
    <contour>
      <point x="529" y="631" type="line"/>
      <point x="409" y="467"/>
      <point x="300" y="224"/>
      <point x="254" y="0" type="curve"/>
      <point x="91" y="0" type="line"/>
      <point x="140" y="206"/>
      <point x="244" y="430"/>
      <point x="360" y="596" type="curve"/>
      <point x="19" y="596" type="line"/>
      <point x="19" y="720" type="line"/>
      <point x="529" y="720" type="line"/>
    </contour>
  </outline>
</glyph>
<glyph name="eight" format="1">
  <advance width="604"/>
  <unicode hex="0038"/>
  <outline>
    <contour>
      <point x="571" y="199" type="curve" smooth="yes"/>
      <point x="571" y="60"/>
      <point x="448" y="-12"/>
      <point x="301" y="-12" type="curve" smooth="yes"/>
      <point x="155" y="-12"/>
      <point x="33" y="59"/>
      <point x="33" y="197" type="curve" smooth="yes"/>
      <point x="33" y="306"/>
      <point x="104" y="364"/>
      <point x="169" y="381" type="curve"/>
      <point x="169" y="387" type="line"/>
      <point x="113" y="405"/>
      <point x="53" y="451"/>
      <point x="53" y="542" type="curve" smooth="yes"/>
      <point x="53" y="658"/>
      <point x="157" y="732"/>
      <point x="301" y="732" type="curve" smooth="yes"/>
      <point x="447" y="732"/>
      <point x="551" y="660"/>
      <point x="551" y="544" type="curve" smooth="yes"/>
      <point x="551" y="453"/>
      <point x="490" y="406"/>
      <point x="435" y="387" type="curve"/>
      <point x="435" y="381" type="line"/>
      <point x="499" y="364"/>
      <point x="571" y="308"/>
    </contour>
    <contour>
      <point x="402" y="527" type="curve" smooth="yes"/>
      <point x="402" y="588"/>
      <point x="364" y="627"/>
      <point x="301" y="627" type="curve" smooth="yes"/>
      <point x="239" y="627"/>
      <point x="202" y="586"/>
      <point x="202" y="529" type="curve" smooth="yes"/>
      <point x="202" y="468"/>
      <point x="243" y="426"/>
      <point x="301" y="426" type="curve" smooth="yes"/>
      <point x="360" y="426"/>
      <point x="402" y="463"/>
    </contour>
    <contour>
      <point x="419" y="210" type="curve" smooth="yes"/>
      <point x="419" y="286"/>
      <point x="371" y="333"/>
      <point x="301" y="333" type="curve" smooth="yes"/>
      <point x="232" y="333"/>
      <point x="185" y="287"/>
      <point x="185" y="212" type="curve" smooth="yes"/>
      <point x="185" y="139"/>
      <point x="230" y="93"/>
      <point x="301" y="93" type="curve" smooth="yes"/>
      <point x="372" y="93"/>
      <point x="419" y="137"/>
    </contour>
  </outline>
</glyph>
<glyph name="less" format="1">
  <advance width="600"/>
  <unicode hex="003C"/>
  <outline>
    <contour>
      <point x="553" y="75" type="line"/>
      <point x="41" y="295" type="line"/>
      <point x="41" y="415" type="line"/>
      <point x="553" y="635" type="line"/>
      <point x="553" y="502" type="line"/>
      <point x="185" y="355" type="line"/>
      <point x="553" y="208" type="line"/>
    </contour>
  </outline>
</glyph>
<glyph name="equal" format="1">
  <advance width="600"/>
  <unicode hex="003D"/>
  <outline>
    <contour>
      <point x="546" y="421" type="line"/>
      <point x="54" y="421" type="line"/>
      <point x="54" y="548" type="line"/>
      <point x="546" y="548" type="line"/>
    </contour>
    <contour>
      <point x="546" y="162" type="line"/>
      <point x="54" y="162" type="line"/>
      <point x="54" y="289" type="line"/>
      <point x="546" y="289" type="line"/>
    </contour>
  </outline>
</glyph>
<glyph name="greater" format="1">
  <advance width="600"/>
  <unicode hex="003E"/>
  <outline>
    <contour>
      <point x="559" y="295" type="line"/>
      <point x="47" y="75" type="line"/>
      <point x="47" y="208" type="line"/>
      <point x="415" y="355" type="line"/>
      <point x="47" y="502" type="line"/>
      <point x="47" y="635" type="line"/>
      <point x="559" y="415" type="line"/>
    </contour>
  </outline>
</glyph>
<glyph name="B" format="1">
  <advance width="625"/>
  <unicode hex="0042"/>
  <outline>
    <contour>
      <point x="601" y="200" type="curve" smooth="yes"/>
      <point x="601" y="71"/>
      <point x="498" y="0"/>
      <point x="335" y="0" type="curve" smooth="yes"/>
      <point x="58" y="0" type="line"/>
      <point x="58" y="720" type="line"/>
      <point x="336" y="720" type="line" smooth="yes"/>
      <point x="485" y="720"/>
      <point x="578" y="657"/>
      <point x="578" y="541" type="curve" smooth="yes"/>
      <point x="578" y="451"/>
      <point x="516" y="407"/>
      <point x="453" y="385" type="curve"/>
      <point x="453" y="381" type="line"/>
      <point x="545" y="353"/>
      <point x="601" y="302"/>
    </contour>
    <contour>
      <point x="424" y="520" type="curve" smooth="yes"/>
      <point x="424" y="577"/>
      <point x="383" y="607"/>
      <point x="313" y="607" type="curve" smooth="yes"/>
      <point x="212" y="607" type="line"/>
      <point x="212" y="429" type="line"/>
      <point x="311" y="429" type="line" smooth="yes"/>
      <point x="381" y="429"/>
      <point x="424" y="459"/>
    </contour>
    <contour>
      <point x="447" y="218" type="curve" smooth="yes"/>
      <point x="447" y="295"/>
      <point x="396" y="327"/>
      <point x="306" y="327" type="curve" smooth="yes"/>
      <point x="212" y="327" type="line"/>
      <point x="212" y="113" type="line"/>
      <point x="306" y="113" type="line" smooth="yes"/>
      <point x="390" y="113"/>
      <point x="447" y="141"/>
    </contour>
  </outline>
</glyph>
<glyph name="E" format="1">
  <advance width="563"/>
  <unicode hex="0045"/>
  <outline>
    <contour>
      <point x="534" y="0" type="line"/>
      <point x="58" y="0" type="line"/>
      <point x="58" y="720" type="line"/>
      <point x="522" y="720" type="line"/>
      <point x="522" y="596" type="line"/>
      <point x="216" y="596" type="line"/>
      <point x="216" y="430" type="line"/>
      <point x="445" y="430" type="line"/>
      <point x="445" y="313" type="line"/>
      <point x="216" y="313" type="line"/>
      <point x="216" y="124" type="line"/>
      <point x="534" y="124" type="line"/>
    </contour>
  </outline>
</glyph>
<glyph name="F" format="1">
  <advance width="534"/>
  <unicode hex="0046"/>
  <outline>
    <contour>
      <point x="514" y="596" type="line"/>
      <point x="218" y="596" type="line"/>
      <point x="218" y="412" type="line"/>
      <point x="431" y="412" type="line"/>
      <point x="431" y="292" type="line"/>
      <point x="218" y="292" type="line"/>
      <point x="218" y="0" type="line"/>
      <point x="58" y="0" type="line"/>
      <point x="58" y="720" type="line"/>
      <point x="514" y="720" type="line"/>
    </contour>
  </outline>
</glyph>
<glyph name="N" format="1">
  <advance width="655"/>
  <unicode hex="004E"/>
  <outline>
    <contour>
      <point x="597" y="0" type="line"/>
      <point x="450" y="0" type="line"/>
      <point x="211" y="469" type="line"/>
      <point x="206" y="469" type="line"/>
      <point x="206" y="0" type="line"/>
      <point x="58" y="0" type="line"/>
      <point x="58" y="720" type="line"/>
      <point x="220" y="720" type="line"/>
      <point x="444" y="278" type="line"/>
      <point x="449" y="278" type="line"/>
      <point x="449" y="720" type="line"/>
      <point x="597" y="720" type="line"/>
    </contour>
  </outline>
</glyph>
<glyph name="P" format="1">
  <advance width="592"/>
  <unicode hex="0050"/>
  <outline>
    <contour>
      <point x="570" y="504" type="curve" smooth="yes"/>
      <point x="570" y="352"/>
      <point x="472" y="276"/>
      <point x="300" y="276" type="curve" smooth="yes"/>
      <point x="218" y="276" type="line"/>
      <point x="218" y="0" type="line"/>
      <point x="58" y="0" type="line"/>
      <point x="58" y="720" type="line"/>
      <point x="308" y="720" type="line" smooth="yes"/>
      <point x="468" y="720"/>
      <point x="570" y="649"/>
    </contour>
    <contour>
      <point x="410" y="501" type="curve" smooth="yes"/>
      <point x="410" y="571"/>
      <point x="369" y="607"/>
      <point x="291" y="607" type="curve" smooth="yes"/>
      <point x="212" y="607" type="line"/>
      <point x="212" y="391" type="line"/>
      <point x="293" y="391" type="line" smooth="yes"/>
      <point x="370" y="391"/>
      <point x="410" y="430"/>
    </contour>
  </outline>
</glyph>
<glyph name="S" format="1">
  <advance width="599"/>
  <unicode hex="0053"/>
  <outline>
    <contour>
      <point x="567" y="206" type="curve" smooth="yes"/>
      <point x="567" y="62"/>
      <point x="463" y="-10"/>
      <point x="303" y="-10" type="curve" smooth="yes"/>
      <point x="168" y="-10"/>
      <point x="84" y="35"/>
      <point x="22" y="125" type="curve"/>
      <point x="122" y="216" type="line"/>
      <point x="168" y="145"/>
      <point x="232" y="108"/>
      <point x="307" y="108" type="curve" smooth="yes"/>
      <point x="381" y="108"/>
      <point x="422" y="137"/>
      <point x="422" y="189" type="curve" smooth="yes"/>
      <point x="422" y="238"/>
      <point x="393" y="264"/>
      <point x="269" y="297" type="curve" smooth="yes"/>
      <point x="99" y="343"/>
      <point x="44" y="404"/>
      <point x="44" y="521" type="curve" smooth="yes"/>
      <point x="44" y="648"/>
      <point x="138" y="730"/>
      <point x="291" y="730" type="curve" smooth="yes"/>
      <point x="410" y="730"/>
      <point x="484" y="693"/>
      <point x="542" y="615" type="curve"/>
      <point x="442" y="524" type="line"/>
      <point x="399" y="581"/>
      <point x="351" y="612"/>
      <point x="287" y="612" type="curve" smooth="yes"/>
      <point x="221" y="612"/>
      <point x="189" y="580"/>
      <point x="189" y="539" type="curve" smooth="yes"/>
      <point x="189" y="493"/>
      <point x="216" y="466"/>
      <point x="338" y="433" type="curve" smooth="yes"/>
      <point x="515" y="385"/>
      <point x="567" y="319"/>
    </contour>
  </outline>
</glyph>
<glyph name="W" format="1">
  <advance width="988"/>
  <unicode hex="0057"/>
  <outline>
    <contour>
      <point x="966" y="720" type="line"/>
      <point x="788" y="-5" type="line"/>
      <point x="617" y="-5" type="line"/>
      <point x="495" y="517" type="line"/>
      <point x="489" y="517" type="line"/>
      <point x="367" y="-5" type="line"/>
      <point x="197" y="-5" type="line"/>
      <point x="19" y="720" type="line"/>
      <point x="185" y="720" type="line"/>
      <point x="288" y="189" type="line"/>
      <point x="294" y="189" type="line"/>
      <point x="410" y="720" type="line"/>
      <point x="579" y="720" type="line"/>
      <point x="696" y="189" type="line"/>
      <point x="701" y="189" type="line"/>
      <point x="805" y="720" type="line"/>
    </contour>
  </outline>
</glyph>
<glyph name="bracketleft" format="1">
  <advance width="389"/>
  <unicode hex="005B"/>
  <outline>
    <contour>
      <point x="366" y="-80" type="line"/>
      <point x="59" y="-90" type="line"/>
      <point x="59" y="730" type="line"/>
      <point x="366" y="720" type="line"/>
      <point x="366" y="659" type="line"/>
      <point x="200" y="665" type="line"/>
      <point x="200" y="-25" type="line"/>
      <point x="366" y="-19" type="line"/>
    </contour>
  </outline>
</glyph>
<glyph name="backslash" format="1">
  <advance width="438"/>
  <unicode hex="005C"/>
  <outline>
    <contour>
      <point x="457" y="-95" type="line"/>
      <point x="314" y="-95" type="line"/>
      <point x="11" y="735" type="line"/>
      <point x="154" y="735" type="line"/>
    </contour>
  </outline>
</glyph>
<glyph name="b" format="1">
  <advance width="549"/>
  <unicode hex="0062"/>
  <outline>
    <contour>
      <point x="517" y="255" type="line" smooth="yes"/>
      <point x="517" y="85"/>
      <point x="449" y="-8"/>
      <point x="353" y="-8" type="curve" smooth="yes"/>
      <point x="284" y="-8"/>
      <point x="244" y="31"/>
      <point x="206" y="96" type="curve"/>
      <point x="202" y="96" type="line"/>
      <point x="202" y="-8" type="line"/>
      <point x="51" y="15" type="line"/>
      <point x="51" y="733" type="line"/>
      <point x="202" y="757" type="line"/>
      <point x="202" y="435" type="line"/>
      <point x="206" y="435" type="line"/>
      <point x="248" y="500"/>
      <point x="288" y="540"/>
      <point x="353" y="540" type="curve" smooth="yes"/>
      <point x="454" y="540"/>
      <point x="517" y="448"/>
      <point x="517" y="278" type="curve" smooth="yes"/>
    </contour>
    <contour>
      <point x="369" y="265" type="curve" smooth="yes"/>
      <point x="369" y="396"/>
      <point x="333" y="443"/>
      <point x="287" y="443" type="curve" smooth="yes"/>
      <point x="236" y="443"/>
      <point x="201" y="381"/>
      <point x="201" y="265" type="curve" smooth="yes"/>
      <point x="201" y="151"/>
      <point x="236" y="89"/>
      <point x="287" y="89" type="curve" smooth="yes"/>
      <point x="334" y="89"/>
      <point x="369" y="138"/>
    </contour>
  </outline>
</glyph>
<glyph name="g" format="1">
  <advance width="549"/>
  <unicode hex="0067"/>
  <outline>
    <contour>
      <point x="498" y="36" type="line" smooth="yes"/>
      <point x="498" y="-130"/>
      <point x="412" y="-191"/>
      <point x="247" y="-191" type="curve" smooth="yes"/>
      <point x="175" y="-191"/>
      <point x="124" y="-181"/>
      <point x="85" y="-166" type="curve"/>
      <point x="85" y="-68" type="line"/>
      <point x="115" y="-68" type="line"/>
      <point x="136" y="-94"/>
      <point x="171" y="-112"/>
      <point x="235" y="-112" type="curve" smooth="yes"/>
      <point x="304" y="-112"/>
      <point x="347" y="-78"/>
      <point x="347" y="12" type="curve" smooth="yes"/>
      <point x="347" y="97" type="line"/>
      <point x="342" y="97" type="line"/>
      <point x="301" y="33"/>
      <point x="261" y="-8"/>
      <point x="195" y="-8" type="curve" smooth="yes"/>
      <point x="94" y="-8"/>
      <point x="32" y="84"/>
      <point x="32" y="255" type="curve" smooth="yes"/>
      <point x="32" y="277" type="line" smooth="yes"/>
      <point x="32" y="447"/>
      <point x="100" y="540"/>
      <point x="196" y="540" type="curve" smooth="yes"/>
      <point x="264" y="540"/>
      <point x="305" y="501"/>
      <point x="342" y="436" type="curve"/>
      <point x="347" y="436" type="line"/>
      <point x="347" y="541" type="line"/>
      <point x="498" y="517" type="line"/>
    </contour>
    <contour>
      <point x="348" y="267" type="curve" smooth="yes"/>
      <point x="348" y="381"/>
      <point x="313" y="443"/>
      <point x="261" y="443" type="curve" smooth="yes"/>
      <point x="215" y="443"/>
      <point x="180" y="394"/>
      <point x="180" y="267" type="curve" smooth="yes"/>
      <point x="180" y="136"/>
      <point x="216" y="89"/>
      <point x="261" y="89" type="curve" smooth="yes"/>
      <point x="312" y="89"/>
      <point x="348" y="151"/>
    </contour>
  </outline>
</glyph>
<glyph name="n" format="1">
  <advance width="542"/>
  <unicode hex="006E"/>
  <outline>
    <contour>
      <point x="496" y="0" type="line"/>
      <point x="346" y="0" type="line"/>
      <point x="346" y="368" type="line" smooth="yes"/>
      <point x="346" y="411"/>
      <point x="329" y="433"/>
      <point x="291" y="433" type="curve" smooth="yes"/>
      <point x="263" y="433"/>
      <point x="232" y="413"/>
      <point x="202" y="376" type="curve"/>
      <point x="202" y="0" type="line"/>
      <point x="51" y="0" type="line"/>
      <point x="51" y="517" type="line"/>
      <point x="202" y="541" type="line"/>
      <point x="202" y="423" type="line"/>
      <point x="206" y="423" type="line"/>
      <point x="265" y="500"/>
      <point x="315" y="539"/>
      <point x="382" y="539" type="curve" smooth="yes"/>
      <point x="456" y="539"/>
      <point x="496" y="492"/>
      <point x="496" y="403" type="curve" smooth="yes"/>
    </contour>
  </outline>
</glyph>
<glyph name="q" format="1">
  <advance width="549"/>
  <unicode hex="0071"/>
  <outline>
    <contour>
      <point x="498" y="-188" type="line"/>
      <point x="347" y="-188" type="line"/>
      <point x="347" y="97" type="line"/>
      <point x="342" y="97" type="line"/>
      <point x="301" y="33"/>
      <point x="261" y="-8"/>
      <point x="195" y="-8" type="curve" smooth="yes"/>
      <point x="94" y="-8"/>
      <point x="32" y="84"/>
      <point x="32" y="255" type="curve" smooth="yes"/>
      <point x="32" y="277" type="line" smooth="yes"/>
      <point x="32" y="447"/>
      <point x="100" y="540"/>
      <point x="196" y="540" type="curve" smooth="yes"/>
      <point x="264" y="540"/>
      <point x="305" y="501"/>
      <point x="342" y="436" type="curve"/>
      <point x="347" y="436" type="line"/>
      <point x="347" y="541" type="line"/>
      <point x="498" y="517" type="line"/>
    </contour>
    <contour>
      <point x="348" y="267" type="curve" smooth="yes"/>
      <point x="348" y="381"/>
      <point x="313" y="443"/>
      <point x="261" y="443" type="curve" smooth="yes"/>
      <point x="215" y="443"/>
      <point x="180" y="394"/>
      <point x="180" y="267" type="curve" smooth="yes"/>
      <point x="180" y="136"/>
      <point x="216" y="89"/>
      <point x="261" y="89" type="curve" smooth="yes"/>
      <point x="312" y="89"/>
      <point x="348" y="151"/>
    </contour>
  </outline>
</glyph>
<glyph name="s" format="1">
  <advance width="452"/>
  <unicode hex="0073"/>
  <outline>
    <contour>
      <point x="435" y="155" type="curve" smooth="yes"/>
      <point x="435" y="45"/>
      <point x="350" y="-9"/>
      <point x="228" y="-9" type="curve" smooth="yes"/>
      <point x="128" y="-9"/>
      <point x="60" y="26"/>
      <point x="13" y="75" type="curve"/>
      <point x="86" y="151" type="line"/>
      <point x="125" y="106"/>
      <point x="180" y="83"/>
      <point x="231" y="83" type="curve" smooth="yes"/>
      <point x="276" y="83"/>
      <point x="307" y="102"/>
      <point x="307" y="135" type="curve" smooth="yes"/>
      <point x="307" y="168"/>
      <point x="288" y="186"/>
      <point x="201" y="211" type="curve" smooth="yes"/>
      <point x="79" y="247"/>
      <point x="33" y="300"/>
      <point x="33" y="382" type="curve" smooth="yes"/>
      <point x="33" y="482"/>
      <point x="115" y="542"/>
      <point x="228" y="542" type="curve" smooth="yes"/>
      <point x="313" y="542"/>
      <point x="371" y="516"/>
      <point x="417" y="468" type="curve"/>
      <point x="344" y="391" type="line"/>
      <point x="303" y="433"/>
      <point x="269" y="450"/>
      <point x="224" y="450" type="curve" smooth="yes"/>
      <point x="183" y="450"/>
      <point x="162" y="427"/>
      <point x="162" y="400" type="curve" smooth="yes"/>
      <point x="162" y="370"/>
      <point x="183" y="351"/>
      <point x="262" y="328" type="curve" smooth="yes"/>
      <point x="388" y="292"/>
      <point x="435" y="241"/>
    </contour>
  </outline>
</glyph>
<glyph name="u" format="1">
  <advance width="541"/>
  <unicode hex="0075"/>
  <outline>
    <contour>
      <point x="490" y="15" type="line"/>
      <point x="340" y="-8" type="line"/>
      <point x="340" y="109" type="line"/>
      <point x="335" y="109" type="line"/>
      <point x="276" y="32"/>
      <point x="226" y="-6"/>
      <point x="160" y="-6" type="curve" smooth="yes"/>
      <point x="86" y="-6"/>
      <point x="45" y="40"/>
      <point x="45" y="130" type="curve" smooth="yes"/>
      <point x="45" y="532" type="line"/>
      <point x="196" y="532" type="line"/>
      <point x="196" y="164" type="line" smooth="yes"/>
      <point x="196" y="121"/>
      <point x="213" y="99"/>
      <point x="250" y="99" type="curve" smooth="yes"/>
      <point x="279" y="99"/>
      <point x="310" y="119"/>
      <point x="340" y="156" type="curve"/>
      <point x="340" y="532" type="line"/>
      <point x="490" y="532" type="line"/>
    </contour>
  </outline>
</glyph>
<glyph name="v" format="1">
  <advance width="534"/>
  <unicode hex="0076"/>
  <outline>
    <contour>
      <point x="521" y="532" type="line"/>
      <point x="349" y="-5" type="line"/>
      <point x="185" y="-5" type="line"/>
      <point x="13" y="532" type="line"/>
      <point x="168" y="532" type="line"/>
      <point x="271" y="149" type="line"/>
      <point x="374" y="532" type="line"/>
    </contour>
  </outline>
</glyph>
<glyph name="asciitilde" format="1">
  <advance width="411"/>
  <unicode hex="007E"/>
  <outline>
    <contour>
      <point x="377" y="362" type="line"/>
      <point x="382" y="259"/>
      <point x="352" y="213"/>
      <point x="284" y="213" type="curve" smooth="yes"/>
      <point x="220" y="213"/>
      <point x="175" y="266"/>
      <point x="139" y="266" type="curve" smooth="yes"/>
      <point x="115" y="266"/>
      <point x="105" y="251"/>
      <point x="104" y="215" type="curve"/>
      <point x="34" y="215" type="line"/>
      <point x="29" y="318"/>
      <point x="59" y="364"/>
      <point x="127" y="364" type="curve" smooth="yes"/>
      <point x="191" y="364"/>
      <point x="236" y="312"/>
      <point x="272" y="312" type="curve" smooth="yes"/>
      <point x="296" y="312"/>
      <point x="306" y="326"/>
      <point x="307" y="362" type="curve"/>
    </contour>
  </outline>
</glyph>
<glyph name="exclamdown" format="1">
  <advance width="281"/>
  <unicode hex="00A1"/>
  <outline>
    <contour>
      <point x="224" y="644" type="curve" smooth="yes"/>
      <point x="224" y="597"/>
      <point x="188" y="561"/>
      <point x="141" y="561" type="curve" smooth="yes"/>
      <point x="93" y="561"/>
      <point x="58" y="597"/>
      <point x="58" y="644" type="curve" smooth="yes"/>
      <point x="58" y="691"/>
      <point x="93" y="727"/>
      <point x="141" y="727" type="curve" smooth="yes"/>
      <point x="188" y="727"/>
      <point x="224" y="691"/>
    </contour>
    <contour>
      <point x="231" y="0" type="line"/>
      <point x="50" y="0" type="line"/>
      <point x="97" y="485" type="line"/>
      <point x="185" y="485" type="line"/>
    </contour>
  </outline>
</glyph>
<glyph name="sterling" format="1">
  <advance width="607"/>
  <unicode hex="00A3"/>
  <outline>
    <contour>
      <point x="591" y="183" type="line"/>
      <point x="561" y="52"/>
      <point x="514" y="-6"/>
      <point x="408" y="-6" type="curve" smooth="yes"/>
      <point x="341" y="-6"/>
      <point x="288" y="17"/>
      <point x="224" y="57" type="curve"/>
      <point x="181" y="23"/>
      <point x="121" y="1"/>
      <point x="43" y="-6" type="curve"/>
      <point x="43" y="101" type="line"/>
      <point x="121" y="115"/>
      <point x="160" y="149"/>
      <point x="160" y="231" type="curve" smooth="yes"/>
      <point x="160" y="263"/>
      <point x="154" y="292"/>
      <point x="147" y="320" type="curve"/>
      <point x="32" y="320" type="line"/>
      <point x="32" y="395" type="line"/>
      <point x="122" y="395" type="line"/>
      <point x="108" y="437"/>
      <point x="96" y="480"/>
      <point x="96" y="527" type="curve" smooth="yes"/>
      <point x="96" y="647"/>
      <point x="175" y="732"/>
      <point x="327" y="732" type="curve" smooth="yes"/>
      <point x="468" y="732"/>
      <point x="526" y="674"/>
      <point x="567" y="585" type="curve"/>
      <point x="437" y="525" type="line"/>
      <point x="407" y="588"/>
      <point x="377" y="618"/>
      <point x="325" y="618" type="curve" smooth="yes"/>
      <point x="265" y="618"/>
      <point x="237" y="582"/>
      <point x="237" y="526" type="curve" smooth="yes"/>
      <point x="237" y="484"/>
      <point x="252" y="442"/>
      <point x="267" y="395" type="curve"/>
      <point x="450" y="395" type="line"/>
      <point x="450" y="320" type="line"/>
      <point x="287" y="320" type="line"/>
      <point x="294" y="293"/>
      <point x="298" y="262"/>
      <point x="298" y="230" type="curve" smooth="yes"/>
      <point x="298" y="199"/>
      <point x="293" y="173"/>
      <point x="284" y="149" type="curve"/>
      <point x="321" y="127"/>
      <point x="354" y="116"/>
      <point x="385" y="116" type="curve" smooth="yes"/>
      <point x="446" y="116"/>
      <point x="471" y="141"/>
      <point x="495" y="215" type="curve"/>
    </contour>
  </outline>
</glyph>
<glyph name="yen" format="1">
  <advance width="640"/>
  <unicode hex="00A5"/>
  <outline>
    <contour>
      <point x="630" y="720" type="line"/>
      <point x="460" y="405" type="line"/>
      <point x="585" y="405" type="line"/>
      <point x="585" y="330" type="line"/>
      <point x="420" y="330" type="line"/>
      <point x="395" y="284" type="line"/>
      <point x="395" y="214" type="line"/>
      <point x="585" y="214" type="line"/>
      <point x="585" y="139" type="line"/>
      <point x="395" y="139" type="line"/>
      <point x="395" y="0" type="line"/>
      <point x="245" y="0" type="line"/>
      <point x="245" y="139" type="line"/>
      <point x="56" y="139" type="line"/>
      <point x="56" y="214" type="line"/>
      <point x="245" y="214" type="line"/>
      <point x="245" y="281" type="line"/>
      <point x="219" y="330" type="line"/>
      <point x="56" y="330" type="line"/>
      <point x="56" y="405" type="line"/>
      <point x="180" y="405" type="line"/>
      <point x="10" y="720" type="line"/>
      <point x="178" y="720" type="line"/>
      <point x="327" y="407" type="line"/>
      <point x="476" y="720" type="line"/>
    </contour>
  </outline>
</glyph>
<glyph name="dieresis" format="1">
  <advance width="500"/>
  <unicode hex="00A8"/>
  <outline>
    <contour>
      <point x="410" y="592" type="line"/>
      <point x="290" y="592" type="line"/>
      <point x="290" y="718" type="line"/>
      <point x="410" y="718" type="line"/>
    </contour>
    <contour>
      <point x="210" y="592" type="line"/>
      <point x="90" y="592" type="line"/>
      <point x="90" y="718" type="line"/>
      <point x="210" y="718" type="line"/>
    </contour>
  </outline>
</glyph>
<glyph name="copyright" format="1">
  <advance width="828"/>
  <unicode hex="00A9"/>
  <outline>
    <contour>
      <point x="786" y="361" type="curve" smooth="yes"/>
      <point x="786" y="148"/>
      <point x="626" y="-12"/>
      <point x="413" y="-12" type="curve" smooth="yes"/>
      <point x="201" y="-12"/>
      <point x="42" y="147"/>
      <point x="42" y="359" type="curve" smooth="yes"/>
      <point x="42" y="572"/>
      <point x="202" y="732"/>
      <point x="415" y="732" type="curve" smooth="yes"/>
      <point x="627" y="732"/>
      <point x="786" y="573"/>
    </contour>
    <contour>
      <point x="742" y="359" type="curve" smooth="yes"/>
      <point x="742" y="552"/>
      <point x="606" y="694"/>
      <point x="413" y="694" type="curve" smooth="yes"/>
      <point x="221" y="694"/>
      <point x="86" y="553"/>
      <point x="86" y="361" type="curve" smooth="yes"/>
      <point x="86" y="168"/>
      <point x="222" y="26"/>
      <point x="415" y="26" type="curve" smooth="yes"/>
      <point x="607" y="26"/>
      <point x="742" y="167"/>
    </contour>
    <contour>
      <point x="571" y="289" type="line"/>
      <point x="555" y="198"/>
      <point x="503" y="147"/>
      <point x="413" y="147" type="curve" smooth="yes"/>
      <point x="313" y="147"/>
      <point x="246" y="219"/>
      <point x="246" y="351" type="curve" smooth="yes"/>
      <point x="246" y="379" type="line" smooth="yes"/>
      <point x="246" y="511"/>
      <point x="313" y="582"/>
      <point x="413" y="582" type="curve" smooth="yes"/>
      <point x="512" y="582"/>
      <point x="555" y="525"/>
      <point x="570" y="443" type="curve"/>
      <point x="474" y="420" type="line"/>
      <point x="464" y="480"/>
      <point x="448" y="505"/>
      <point x="413" y="505" type="curve" smooth="yes"/>
      <point x="368" y="505"/>
      <point x="350" y="460"/>
      <point x="350" y="391" type="curve" smooth="yes"/>
      <point x="350" y="339" type="line" smooth="yes"/>
      <point x="350" y="271"/>
      <point x="368" y="225"/>
      <point x="414" y="225" type="curve" smooth="yes"/>
      <point x="451" y="225"/>
      <point x="468" y="251"/>
      <point x="479" y="311" type="curve"/>
    </contour>
  </outline>
</glyph>
<glyph name="ccedilla" format="1">
  <advance width="491"/>
  <unicode hex="00E7"/>
  <outline>
    <contour>
      <point x="471" y="156" type="line"/>
      <point x="446" y="50"/>
      <point x="380" y="-4"/>
      <point x="278" y="-9" type="curve"/>
      <point x="251" y="-46" type="line"/>
      <point x="263" y="-43"/>
      <point x="281" y="-41"/>
      <point x="300" y="-41" type="curve" smooth="yes"/>
      <point x="350" y="-41"/>
      <point x="385" y="-59"/>
      <point x="385" y="-98" type="curve" smooth="yes"/>
      <point x="385" y="-163"/>
      <point x="310" y="-194"/>
      <point x="123" y="-191" type="curve"/>
      <point x="123" y="-160" type="line"/>
      <point x="254" y="-160"/>
      <point x="295" y="-143"/>
      <point x="295" y="-116" type="curve" smooth="yes"/>
      <point x="295" y="-102"/>
      <point x="284" y="-94"/>
      <point x="260" y="-94" type="curve" smooth="yes"/>
      <point x="242" y="-94"/>
      <point x="224" y="-98"/>
      <point x="205" y="-105" type="curve"/>
      <point x="173" y="-85" type="line"/>
      <point x="231" y="-9" type="line"/>
      <point x="107" y="3"/>
      <point x="30" y="101"/>
      <point x="30" y="255" type="curve" smooth="yes"/>
      <point x="30" y="277" type="line" smooth="yes"/>
      <point x="30" y="440"/>
      <point x="119" y="542"/>
      <point x="263" y="542" type="curve" smooth="yes"/>
      <point x="379" y="542"/>
      <point x="447" y="485"/>
      <point x="469" y="372" type="curve"/>
      <point x="335" y="345" type="line"/>
      <point x="323" y="413"/>
      <point x="305" y="444"/>
      <point x="261" y="444" type="curve" smooth="yes"/>
      <point x="207" y="444"/>
      <point x="180" y="392"/>
      <point x="180" y="271" type="curve" smooth="yes"/>
      <point x="180" y="261" type="line" smooth="yes"/>
      <point x="180" y="141"/>
      <point x="208" y="88"/>
      <point x="263" y="88" type="curve" smooth="yes"/>
      <point x="301" y="88"/>
      <point x="324" y="113"/>
      <point x="340" y="183" type="curve"/>
    </contour>
  </outline>
</glyph>
<glyph name="oslash" format="1">
  <advance width="529"/>
  <unicode hex="00F8"/>
  <outline>
    <contour>
      <point x="499" y="255" type="line" smooth="yes"/>
      <point x="499" y="92"/>
      <point x="411" y="-10"/>
      <point x="264" y="-10" type="curve" smooth="yes"/>
      <point x="228" y="-10"/>
      <point x="196" y="-3"/>
      <point x="167" y="10" type="curve"/>
      <point x="116" y="-95" type="line"/>
      <point x="30" y="-95" type="line"/>
      <point x="108" y="44" type="line"/>
      <point x="58" y="89"/>
      <point x="30" y="162"/>
      <point x="30" y="255" type="curve" smooth="yes"/>
      <point x="30" y="277" type="line" smooth="yes"/>
      <point x="30" y="440"/>
      <point x="117" y="542"/>
      <point x="264" y="542" type="curve" smooth="yes"/>
      <point x="301" y="542"/>
      <point x="333" y="535"/>
      <point x="362" y="522" type="curve"/>
      <point x="413" y="627" type="line"/>
      <point x="499" y="627" type="line"/>
      <point x="421" y="488" type="line"/>
      <point x="471" y="442"/>
      <point x="499" y="369"/>
      <point x="499" y="278" type="curve" smooth="yes"/>
    </contour>
    <contour>
      <point x="319" y="434" type="line"/>
      <point x="304" y="449"/>
      <point x="285" y="457"/>
      <point x="264" y="457" type="curve" smooth="yes"/>
      <point x="206" y="457"/>
      <point x="169" y="404"/>
      <point x="169" y="278" type="curve" smooth="yes"/>
      <point x="169" y="255" type="line" smooth="yes"/>
      <point x="169" y="218"/>
      <point x="175" y="187"/>
      <point x="186" y="163" type="curve"/>
    </contour>
    <contour>
      <point x="360" y="254" type="curve" smooth="yes"/>
      <point x="360" y="278" type="line" smooth="yes"/>
      <point x="360" y="314"/>
      <point x="354" y="344"/>
      <point x="343" y="368" type="curve"/>
      <point x="210" y="98" type="line"/>
      <point x="225" y="82"/>
      <point x="243" y="76"/>
      <point x="264" y="76" type="curve" smooth="yes"/>
      <point x="322" y="76"/>
      <point x="360" y="128"/>
    </contour>
  </outline>
</glyph>
<glyph name="lslash" format="1">
  <advance width="339"/>
  <unicode hex="0142"/>
  <outline>
    <contour>
      <point x="318" y="379" type="line"/>
      <point x="242" y="346" type="line"/>
      <point x="242" y="0" type="line"/>
      <point x="97" y="0" type="line"/>
      <point x="97" y="291" type="line"/>
      <point x="20" y="257" type="line"/>
      <point x="20" y="378" type="line"/>
      <point x="97" y="411" type="line"/>
      <point x="97" y="733" type="line"/>
      <point x="242" y="757" type="line"/>
      <point x="242" y="466" type="line"/>
      <point x="318" y="500" type="line"/>
    </contour>
  </outline>
</glyph>
<glyph name="OE" format="1">
  <advance width="904"/>
  <unicode hex="0152"/>
  <outline>
    <contour>
      <point x="874" y="0" type="line"/>
      <point x="354" y="0" type="line" smooth="yes"/>
      <point x="154" y="0"/>
      <point x="39" y="119"/>
      <point x="39" y="341" type="curve" smooth="yes"/>
      <point x="39" y="378" type="line" smooth="yes"/>
      <point x="39" y="601"/>
      <point x="156" y="720"/>
      <point x="356" y="720" type="curve" smooth="yes"/>
      <point x="862" y="720" type="line"/>
      <point x="862" y="598" type="line"/>
      <point x="566" y="598" type="line"/>
      <point x="566" y="430" type="line"/>
      <point x="786" y="430" type="line"/>
      <point x="786" y="313" type="line"/>
      <point x="566" y="313" type="line"/>
      <point x="566" y="122" type="line"/>
      <point x="874" y="122" type="line"/>
    </contour>
    <contour>
      <point x="413" y="118" type="line"/>
      <point x="413" y="602" type="line"/>
      <point x="361" y="602" type="line" smooth="yes"/>
      <point x="260" y="602"/>
      <point x="201" y="532"/>
      <point x="201" y="394" type="curve" smooth="yes"/>
      <point x="201" y="326" type="line" smooth="yes"/>
      <point x="201" y="188"/>
      <point x="259" y="118"/>
      <point x="363" y="118" type="curve" smooth="yes"/>
    </contour>
  </outline>
</glyph>
<glyph name="florin" format="1">
  <advance width="511"/>
  <unicode hex="0192"/>
  <outline>
    <contour>
      <point x="494" y="712" type="curve"/>
      <point x="476" y="611" type="line"/>
      <point x="449" y="618"/>
      <point x="426" y="621"/>
      <point x="393" y="621" type="curve" smooth="yes"/>
      <point x="351" y="621"/>
      <point x="326" y="599"/>
      <point x="317" y="551" type="curve" smooth="yes"/>
      <point x="302" y="470" type="line"/>
      <point x="428" y="470" type="line"/>
      <point x="411" y="368" type="line"/>
      <point x="285" y="368" type="line"/>
      <point x="213" y="-38" type="line" smooth="yes"/>
      <point x="193" y="-149"/>
      <point x="128" y="-190"/>
      <point x="30" y="-190" type="curve" smooth="yes"/>
      <point x="-14" y="-190"/>
      <point x="-48" y="-186"/>
      <point x="-76" y="-180" type="curve"/>
      <point x="-58" y="-83" type="line"/>
      <point x="-41" y="-86"/>
      <point x="-24" y="-88"/>
      <point x="-3" y="-88" type="curve" smooth="yes"/>
      <point x="36" y="-88"/>
      <point x="58" y="-69"/>
      <point x="66" y="-25" type="curve" smooth="yes"/>
      <point x="136" y="368" type="line"/>
      <point x="41" y="368" type="line"/>
      <point x="58" y="470" type="line"/>
      <point x="154" y="470" type="line"/>
      <point x="171" y="567" type="line" smooth="yes"/>
      <point x="191" y="681"/>
      <point x="258" y="726"/>
      <point x="361" y="726" type="curve" smooth="yes"/>
      <point x="419" y="726"/>
      <point x="460" y="720"/>
    </contour>
  </outline>
</glyph>
<glyph name="quotesinglbase" format="1">
  <advance width="236"/>
  <unicode hex="201A"/>
  <outline>
    <contour>
      <point x="214" y="165" type="line"/>
      <point x="109" y="-115" type="line"/>
      <point x="26" y="-115" type="line"/>
      <point x="54" y="165" type="line"/>
    </contour>
  </outline>
</glyph>
<glyph name="ellipsis" format="1">
  <advance width="716"/>
  <unicode hex="2026"/>
  <outline>
    <contour>
      <point x="683" y="75" type="curve" smooth="yes"/>
      <point x="683" y="28"/>
      <point x="648" y="-7"/>
      <point x="601" y="-7" type="curve" smooth="yes"/>
      <point x="554" y="-7"/>
      <point x="518" y="28"/>
      <point x="518" y="75" type="curve" smooth="yes"/>
      <point x="518" y="122"/>
      <point x="554" y="157"/>
      <point x="601" y="157" type="curve" smooth="yes"/>
      <point x="648" y="157"/>
      <point x="683" y="122"/>
    </contour>
    <contour>
      <point x="440" y="75" type="curve" smooth="yes"/>
      <point x="440" y="28"/>
      <point x="405" y="-7"/>
      <point x="358" y="-7" type="curve" smooth="yes"/>
      <point x="311" y="-7"/>
      <point x="276" y="28"/>
      <point x="276" y="75" type="curve" smooth="yes"/>
      <point x="276" y="122"/>
      <point x="311" y="157"/>
      <point x="358" y="157" type="curve" smooth="yes"/>
      <point x="405" y="157"/>
      <point x="440" y="122"/>
    </contour>
    <contour>
      <point x="198" y="75" type="curve" smooth="yes"/>
      <point x="198" y="28"/>
      <point x="162" y="-7"/>
      <point x="115" y="-7" type="curve" smooth="yes"/>
      <point x="68" y="-7"/>
      <point x="33" y="28"/>
      <point x="33" y="75" type="curve" smooth="yes"/>
      <point x="33" y="122"/>
      <point x="68" y="157"/>
      <point x="115" y="157" type="curve" smooth="yes"/>
      <point x="162" y="157"/>
      <point x="198" y="122"/>
    </contour>
  </outline>
</glyph>
<glyph name="perthousand" format="1">
  <advance width="1350"/>
  <unicode hex="2030"/>
  <outline>
    <contour>
      <point x="1324" y="204" type="curve" smooth="yes"/>
      <point x="1324" y="71"/>
      <point x="1245" y="-7"/>
      <point x="1135" y="-7" type="curve" smooth="yes"/>
      <point x="1025" y="-7"/>
      <point x="948" y="69"/>
      <point x="948" y="204" type="curve" smooth="yes"/>
      <point x="948" y="337"/>
      <point x="1027" y="414"/>
      <point x="1137" y="414" type="curve" smooth="yes"/>
      <point x="1247" y="414"/>
      <point x="1324" y="339"/>
    </contour>
    <contour>
      <point x="902" y="204" type="curve" smooth="yes"/>
      <point x="902" y="71"/>
      <point x="824" y="-7"/>
      <point x="714" y="-7" type="curve" smooth="yes"/>
      <point x="603" y="-7"/>
      <point x="527" y="69"/>
      <point x="527" y="204" type="curve" smooth="yes"/>
      <point x="527" y="337"/>
      <point x="605" y="414"/>
      <point x="716" y="414" type="curve" smooth="yes"/>
      <point x="826" y="414"/>
      <point x="902" y="339"/>
    </contour>
    <contour>
      <point x="751" y="720" type="line"/>
      <point x="496" y="346" type="line"/>
      <point x="307" y="0" type="line"/>
      <point x="177" y="0" type="line"/>
      <point x="433" y="374" type="line"/>
      <point x="622" y="720" type="line"/>
    </contour>
    <contour>
      <point x="401" y="516" type="curve" smooth="yes"/>
      <point x="401" y="383"/>
      <point x="323" y="306"/>
      <point x="213" y="306" type="curve" smooth="yes"/>
      <point x="102" y="306"/>
      <point x="26" y="381"/>
      <point x="26" y="516" type="curve" smooth="yes"/>
      <point x="26" y="649"/>
      <point x="104" y="727"/>
      <point x="215" y="727" type="curve" smooth="yes"/>
      <point x="325" y="727"/>
      <point x="401" y="651"/>
    </contour>
    <contour>
      <point x="1212" y="203" type="curve" smooth="yes"/>
      <point x="1212" y="281"/>
      <point x="1186" y="326"/>
      <point x="1136" y="326" type="curve" smooth="yes"/>
      <point x="1086" y="326"/>
      <point x="1060" y="283"/>
      <point x="1060" y="205" type="curve" smooth="yes"/>
      <point x="1060" y="126"/>
      <point x="1086" y="81"/>
      <point x="1136" y="81" type="curve" smooth="yes"/>
      <point x="1185" y="81"/>
      <point x="1212" y="124"/>
    </contour>
    <contour>
      <point x="790" y="203" type="curve" smooth="yes"/>
      <point x="790" y="281"/>
      <point x="764" y="326"/>
      <point x="715" y="326" type="curve" smooth="yes"/>
      <point x="665" y="326"/>
      <point x="639" y="283"/>
      <point x="639" y="205" type="curve" smooth="yes"/>
      <point x="639" y="126"/>
      <point x="665" y="81"/>
      <point x="715" y="81" type="curve" smooth="yes"/>
      <point x="764" y="81"/>
      <point x="790" y="124"/>
    </contour>
    <contour>
      <point x="290" y="515" type="curve" smooth="yes"/>
      <point x="290" y="594"/>
      <point x="263" y="639"/>
      <point x="214" y="639" type="curve" smooth="yes"/>
      <point x="164" y="639"/>
      <point x="138" y="596"/>
      <point x="138" y="517" type="curve" smooth="yes"/>
      <point x="138" y="439"/>
      <point x="164" y="394"/>
      <point x="214" y="394" type="curve" smooth="yes"/>
      <point x="263" y="394"/>
      <point x="290" y="437"/>
    </contour>
  </outline>
</glyph>
<glyph name="guilsinglleft" format="1">
  <advance width="289"/>
  <unicode hex="2039"/>
  <outline>
    <contour>
      <point x="260" y="70" type="line"/>
      <point x="179" y="70" type="line"/>
      <point x="17" y="266" type="line"/>
      <point x="179" y="462" type="line"/>
      <point x="260" y="462" type="line"/>
      <point x="170" y="266" type="line"/>
    </contour>
  </outline>
</glyph>
<glyph name="trademark" format="1">
  <advance width="780"/>
  <unicode hex="2122"/>
  <outline>
    <contour>
      <point x="732" y="381" type="line"/>
      <point x="654" y="381" type="line"/>
      <point x="654" y="634" type="line"/>
      <point x="652" y="634" type="line"/>
      <point x="578" y="381" type="line"/>
      <point x="501" y="381" type="line"/>
      <point x="428" y="634" type="line"/>
      <point x="426" y="634" type="line"/>
      <point x="426" y="381" type="line"/>
      <point x="351" y="381" type="line"/>
      <point x="351" y="720" type="line"/>
      <point x="472" y="720" type="line"/>
      <point x="539" y="485" type="line"/>
      <point x="542" y="485" type="line"/>
      <point x="611" y="720" type="line"/>
      <point x="732" y="720" type="line"/>
    </contour>
    <contour>
      <point x="300" y="651" type="line"/>
      <point x="207" y="651" type="line"/>
      <point x="207" y="381" type="line"/>
      <point x="123" y="381" type="line"/>
      <point x="123" y="651" type="line"/>
      <point x="30" y="651" type="line"/>
      <point x="30" y="720" type="line"/>
      <point x="300" y="720" type="line"/>
    </contour>
  </outline>
</glyph>
<glyph name="radical" format="1">
  <advance width="603"/>
  <unicode hex="221A"/>
  <outline>
    <contour>
      <point x="586" y="720" type="line"/>
      <point x="341" y="-4" type="line"/>
      <point x="176" y="-4" type="line"/>
      <point x="21" y="340" type="line"/>
      <point x="177" y="340" type="line"/>
      <point x="261" y="120" type="line"/>
      <point x="420" y="720" type="line"/>
    </contour>
  </outline>
</glyph>
<glyph name="f_f" format="1">
  <advance width="724"/>
  <unicode hex="FB00"/>
  <outline>
    <contour>
      <point x="729" y="647" type="line"/>
      <point x="710" y="654"/>
      <point x="690" y="657"/>
      <point x="660" y="657" type="curve" smooth="yes"/>
      <point x="615" y="657"/>
      <point x="593" y="637"/>
      <point x="593" y="589" type="curve" smooth="yes"/>
      <point x="593" y="529" type="line"/>
      <point x="719" y="529" type="line"/>
      <point x="719" y="428" type="line"/>
      <point x="593" y="428" type="line"/>
      <point x="593" y="0" type="line"/>
      <point x="444" y="0" type="line"/>
      <point x="444" y="428" type="line"/>
      <point x="256" y="428" type="line"/>
      <point x="256" y="0" type="line"/>
      <point x="107" y="0" type="line"/>
      <point x="107" y="428" type="line"/>
      <point x="12" y="428" type="line"/>
      <point x="12" y="529" type="line"/>
      <point x="107" y="529" type="line"/>
      <point x="107" y="585" type="line" smooth="yes"/>
      <point x="107" y="700"/>
      <point x="171" y="759"/>
      <point x="286" y="759" type="curve" smooth="yes"/>
      <point x="333" y="759"/>
      <point x="363" y="755"/>
      <point x="392" y="747" type="curve"/>
      <point x="392" y="647" type="line"/>
      <point x="373" y="654"/>
      <point x="353" y="657"/>
      <point x="323" y="657" type="curve" smooth="yes"/>
      <point x="278" y="657"/>
      <point x="256" y="637"/>
      <point x="256" y="589" type="curve" smooth="yes"/>
      <point x="256" y="529" type="line"/>
      <point x="444" y="529" type="line"/>
      <point x="444" y="585" type="line" smooth="yes"/>
      <point x="444" y="700"/>
      <point x="508" y="759"/>
      <point x="623" y="759" type="curve" smooth="yes"/>
      <point x="670" y="759"/>
      <point x="700" y="755"/>
      <point x="729" y="747" type="curve"/>
    </contour>
  </outline>
</glyph>
<glyph name="fi" format="1">
  <advance width="650"/>
  <unicode hex="FB01"/>
  <outline>
    <contour>
      <point x="600" y="610" type="line"/>
      <point x="438" y="610" type="line"/>
      <point x="438" y="727" type="line"/>
      <point x="600" y="727" type="line"/>
    </contour>
    <contour>
      <point x="594" y="0" type="line"/>
      <point x="444" y="0" type="line"/>
      <point x="444" y="532" type="line"/>
      <point x="594" y="532" type="line"/>
    </contour>
    <contour>
      <point x="392" y="647" type="line"/>
      <point x="373" y="654"/>
      <point x="353" y="657"/>
      <point x="323" y="657" type="curve" smooth="yes"/>
      <point x="278" y="657"/>
      <point x="256" y="637"/>
      <point x="256" y="589" type="curve" smooth="yes"/>
      <point x="256" y="529" type="line"/>
      <point x="382" y="529" type="line"/>
      <point x="382" y="428" type="line"/>
      <point x="256" y="428" type="line"/>
      <point x="256" y="0" type="line"/>
      <point x="107" y="0" type="line"/>
      <point x="107" y="428" type="line"/>
      <point x="12" y="428" type="line"/>
      <point x="12" y="529" type="line"/>
      <point x="107" y="529" type="line"/>
      <point x="107" y="585" type="line" smooth="yes"/>
      <point x="107" y="700"/>
      <point x="171" y="759"/>
      <point x="286" y="759" type="curve" smooth="yes"/>
      <point x="333" y="759"/>
      <point x="363" y="755"/>
      <point x="392" y="747" type="curve"/>
    </contour>
  </outline>
</glyph>
<glyph name="endash.uc" format="1">
  <advance width="600"/>
  <outline>
    <contour>
      <point x="562" y="289" type="line"/>
      <point x="38" y="289" type="line"/>
      <point x="38" y="421" type="line"/>
      <point x="562" y="421" type="line"/>
    </contour>
  </outline>
</glyph>
